<?xml version="1.0" encoding="UTF-8"?>
<svg width="48mm" height="46.277mm" version="1.1" viewBox="0 0 48 46.277" xmlns="http://www.w3.org/2000/svg" xmlns:cc="http://creativecommons.org/ns#" xmlns:dc="http://purl.org/dc/elements/1.1/" xmlns:rdf="http://www.w3.org/1999/02/22-rdf-syntax-ns#">
<defs>
<marker id="a" overflow="visible" orient="auto">
<path transform="scale(.8)" d="m5.77 0-8.65 5v-10z" fill-rule="evenodd" stroke="#00FFFFFF" stroke-width="1pt"/>
</marker>
</defs>
<metadata>
<rdf:RDF>
<cc:Work rdf:about="">
<dc:format>image/svg+xml</dc:format>
<dc:type rdf:resource="http://purl.org/dc/dcmitype/StillImage"/>
<dc:title/>
</cc:Work>
</rdf:RDF>
</metadata>
<g transform="translate(-21.617,-16.706)" fill="#fff" stroke="#00FFFFFF">
<path d="m39.713 47.304c-4.2844-1.9439-7.7011-6.0564-8.8853-10.695-0.5153-2.0184-0.51612-5.6705-2e-3 -7.694 1.4456-5.6871 5.94-10.181 11.627-11.627 2.021-0.51372 5.6731-0.51372 7.694 0 5.6871 1.4456 10.181 5.94 11.627 11.627 0.51308 2.0184 0.51388 5.6705 2e-3 7.694-1.0918 4.3134-4.2471 8.3137-8.0972 10.266-1.1481 0.58213-2.2758 0.9776-2.6407 0.92604-0.62305-0.08804-0.64013-0.15963-0.7884-3.306-0.11457-2.4312-0.26501-3.3892-0.61645-3.9256-0.2557-0.39024-0.42562-0.73852-0.37761-0.77395 0.048-0.03543 0.88844-0.27577 1.8676-0.53408 3.1891-0.84127 4.8193-2.8572 5.1468-6.3646 0.16374-1.7535-0.16747-3.2061-1.0026-4.3975-0.36936-0.5269-0.45191-0.99793-0.34776-1.9844 0.16793-1.5907-0.16797-2.8511-0.79184-2.9713-0.25779-0.04967-1.2297 0.28434-2.1598 0.74224-1.6597 0.81709-1.728 0.82741-3.6795 0.55599-1.3643-0.18975-2.5967-0.19194-3.9266-7e-3 -1.8819 0.26175-1.9894 0.24568-3.6958-0.55284-0.96662-0.45234-1.9611-0.78321-2.2099-0.73527-0.60887 0.11731-0.94192 1.392-0.77552 2.9681 0.10415 0.98645 0.0216 1.4575-0.34776 1.9844-0.83517 1.1914-1.1664 2.6441-1.0026 4.3975 0.32753 3.5074 1.9577 5.5233 5.1468 6.3646 0.97919 0.25831 1.8223 0.50127 1.8735 0.53992s-0.0976 0.34259-0.33073 0.67542c-0.23302 0.33283-0.42376 0.81678-0.42376 1.0754 0 0.25866-0.11533 0.4703-0.25628 0.4703s-0.19237 0.16655-0.11425 0.37011c0.0781 0.20356 0.014 0.44923-0.14247 0.54594-0.15647 0.0967-0.35592-0.01032-0.44322-0.23782-0.10154-0.2646-0.48783-0.41364-1.0721-0.41364-0.54152 0-0.84678 0.10771-0.74983 0.26458 0.0899 0.14552-0.0348 0.26458-0.27727 0.26458-0.27168 0-0.38559-0.14387-0.29691-0.37498 0.0791-0.20624-0.0195-0.43768-0.21918-0.5143-0.19969-0.07663-0.40756-0.0059-0.46193 0.15724-0.0544 0.16321-0.24632 0.20542-0.42681 0.09387-0.24057-0.14868-0.25062-0.29589-0.0377-0.55246 0.20076-0.24191 0.20473-0.40264 0.0129-0.52123-0.15259-0.0943-0.27744-0.04537-0.27744 0.10874s-0.13197 0.2802-0.29326 0.2802c-0.17695 0-0.23043-0.25035-0.13485-0.63118 0.19022-0.75788-0.35697-1.3091-1.0395-1.0472-0.37053 0.14218-0.4386 0.08442-0.30642-0.26002 0.13681-0.35652 7e-3 -0.44281-0.66723-0.44281h-0.83715l0.93868 0.8599c0.51628 0.47294 1.1992 1.3706 1.5176 1.9948 0.78206 1.5331 1.8894 2.1702 3.7742 2.1714l1.4969 0.0011 0.0906 1.4752c0.0499 0.81138-5e-3 1.6448-0.12095 1.8521-0.29116 0.51856-1.1606 0.46291-2.5391-0.16252zm0.50171-4.4877c0-0.14552 0.1786-0.26458 0.39688-0.26458s0.39687 0.11906 0.39687 0.26458-0.17859 0.26458-0.39687 0.26458-0.39688-0.11906-0.39688-0.26458zm-3.7042-2.6458c0-0.14552 0.11203-0.26458 0.24897-0.26458 0.13693 0 0.32255 0.11906 0.41249 0.26458 0.0899 0.14552-0.0221 0.26458-0.24897 0.26458s-0.41249-0.11906-0.41249-0.26458z" stroke="#fff" stroke-width=".26458"/>
<path d="m46.338 58.799v-8.9769" marker-end="url(#a)" stroke="#fff" stroke-width="1.765"/>
<rect x="41.534" y="54.624" width="9.7677" height="7.7097" stroke-opacity="0"/>
<path d="m37.686 54.79 8.7006-15.009 8.5966 15.009z" stroke="#fff" stroke-width=".26458px"/>
</g>
</svg>
