<?xml version="1.0" encoding="UTF-8" standalone="no"?>
<svg
   xmlns:dc="http://purl.org/dc/elements/1.1/"
   xmlns:cc="http://creativecommons.org/ns#"
   xmlns:rdf="http://www.w3.org/1999/02/22-rdf-syntax-ns#"
   xmlns:svg="http://www.w3.org/2000/svg"
   xmlns="http://www.w3.org/2000/svg"
   xmlns:sodipodi="http://sodipodi.sourceforge.net/DTD/sodipodi-0.dtd"
   xmlns:inkscape="http://www.inkscape.org/namespaces/inkscape"
   width="48mm"
   height="46.277mm"
   version="1.1"
   viewBox="0 0 48 46.277"
   id="svg19"
   sodipodi:docname="Octopush.svg"
   inkscape:version="0.92.1 r15371">
  <sodipodi:namedview
     pagecolor="#ffffff"
     bordercolor="#666666"
     borderopacity="1"
     objecttolerance="10"
     gridtolerance="10"
     guidetolerance="10"
     inkscape:pageopacity="0"
     inkscape:pageshadow="2"
     inkscape:window-width="1366"
     inkscape:window-height="705"
     id="namedview21"
     showgrid="false"
     inkscape:zoom="1.3493024"
     inkscape:cx="59.941417"
     inkscape:cy="87.452599"
     inkscape:window-x="-8"
     inkscape:window-y="-8"
     inkscape:window-maximized="1"
     inkscape:current-layer="g17" />
  <defs
     id="defs5">
    <marker
       id="a"
       overflow="visible"
       orient="auto"
       style="overflow:visible">
      <path
         transform="scale(0.8)"
         d="M 5.77,0 -2.88,5 V -5 Z"
         stroke="#00FFFFFF"
         id="path2"
         inkscape:connector-curvature="0"
         style="fill-rule:evenodd;stroke-width:1.00000003pt" />
    </marker>
  </defs>
  <metadata
     id="metadata7">
    <rdf:RDF>
      <cc:Work
         rdf:about="">
        <dc:format>image/svg+xml</dc:format>
        <dc:type
           rdf:resource="http://purl.org/dc/dcmitype/StillImage" />
        <dc:title></dc:title>
      </cc:Work>
    </rdf:RDF>
  </metadata>
  <g
     transform="translate(-21.617,-16.706)"
     stroke="#00FFFFFF"
     id="g17"
     style="fill:#000000">
    <path
       d="m 39.713004,47.304089 c -4.2844,-1.9439 -7.7011,-6.0564 -8.8853,-10.695 -0.5153,-2.0184 -0.51612,-5.6705 -0.002,-7.694 1.4456,-5.6871 5.94,-10.181 11.627,-11.627 2.021,-0.51372 5.6731,-0.51372 7.694,0 5.6871,1.4456 10.181,5.94 11.627,11.627 0.51308,2.0184 0.51388,5.6705 0.002,7.694 -1.0918,4.3134 -4.2471,8.3137 -8.0972,10.266 -1.1481,0.58213 -2.2758,0.9776 -2.6407,0.92604 -0.62305,-0.08804 -0.64013,-0.15963 -0.7884,-3.306 -0.11457,-2.4312 -0.26501,-3.3892 -0.61645,-3.9256 -0.2557,-0.39024 -0.42562,-0.73852 -0.37761,-0.77395 0.048,-0.03543 0.88844,-0.27577 1.8676,-0.53408 3.1891,-0.84127 4.8193,-2.8572 5.1468,-6.3646 0.16374,-1.7535 -0.16747,-3.2061 -1.0026,-4.3975 -0.36936,-0.5269 -0.45191,-0.99793 -0.34776,-1.9844 0.16793,-1.5907 -0.16797,-2.8511 -0.79184,-2.9713 -0.25779,-0.04967 -1.2297,0.28434 -2.1598,0.74224 -1.6597,0.81709 -1.728,0.82741 -3.6795,0.55599 -1.3643,-0.18975 -2.5967,-0.19194 -3.9266,-0.007 -1.8819,0.26175 -1.9894,0.24568 -3.6958,-0.55284 -0.96662,-0.45234 -1.9611,-0.78321 -2.2099,-0.73527 -0.60887,0.11731 -0.94192,1.392 -0.77552,2.9681 0.10415,0.98645 0.0216,1.4575 -0.34776,1.9844 -0.83517,1.1914 -1.1664,2.6441 -1.0026,4.3975 0.32753,3.5074 1.9577,5.5233 5.1468,6.3646 0.97919,0.25831 1.8223,0.50127 1.8735,0.53992 0.0512,0.03865 -0.0976,0.34259 -0.33073,0.67542 -0.23302,0.33283 -0.42376,0.81678 -0.42376,1.0754 0,0.25866 -0.11533,0.4703 -0.25628,0.4703 -0.14095,0 -0.19237,0.16655 -0.11425,0.37011 0.0781,0.20356 0.014,0.44923 -0.14247,0.54594 -0.15647,0.0967 -0.35592,-0.01032 -0.44322,-0.23782 -0.10154,-0.2646 -0.48783,-0.41364 -1.0721,-0.41364 -0.54152,0 -0.84678,0.10771 -0.74983,0.26458 0.0899,0.14552 -0.0348,0.26458 -0.27727,0.26458 -0.27168,0 -0.38559,-0.14387 -0.29691,-0.37498 0.0791,-0.20624 -0.0195,-0.43768 -0.21918,-0.5143 -0.19969,-0.07663 -0.40756,-0.0059 -0.46193,0.15724 -0.0544,0.16321 -0.24632,0.20542 -0.42681,0.09387 -0.24057,-0.14868 -0.25062,-0.29589 -0.0377,-0.55246 0.20076,-0.24191 0.20473,-0.40264 0.0129,-0.52123 -0.15259,-0.0943 -0.27744,-0.04537 -0.27744,0.10874 0,0.15411 -0.13197,0.2802 -0.29326,0.2802 -0.17695,0 -0.23043,-0.25035 -0.13485,-0.63118 0.19022,-0.75788 -0.35697,-1.3091 -1.0395,-1.0472 -0.37053,0.14218 -0.4386,0.08442 -0.30642,-0.26002 0.13681,-0.35652 0.007,-0.44281 -0.66723,-0.44281 h -0.83715 l 0.93868,0.8599 c 0.51628,0.47294 1.1992,1.3706 1.5176,1.9948 0.78206,1.5331 1.8894,2.1702 3.7742,2.1714 l 1.4969,0.0011 0.0906,1.4752 c 0.0499,0.81138 -0.005,1.6448 -0.12095,1.8521 -0.29116,0.51856 -1.1606,0.46291 -2.5391,-0.16252 z m 0.50171,-4.4877 c 0,-0.14552 0.1786,-0.26458 0.39688,-0.26458 0.21828,0 0.39687,0.11906 0.39687,0.26458 0,0.14552 -0.17859,0.26458 -0.39687,0.26458 -0.21828,0 -0.39688,-0.11906 -0.39688,-0.26458 z m -3.7042,-2.6458 c 0,-0.14552 0.11203,-0.26458 0.24897,-0.26458 0.13693,0 0.32255,0.11906 0.41249,0.26458 0.0899,0.14552 -0.0221,0.26458 -0.24897,0.26458 -0.22687,0 -0.41249,-0.11906 -0.41249,-0.26458 z"
       id="path9"
       style="fill:#ffffff;stroke-width:0.26458001;stroke:#ffffff"
       inkscape:connector-curvature="0" />
    <path
       d="m 46.338004,58.799089 v -8.9769"
       id="path11"
       style="fill:#ffffff;stroke-width:1.76499999;marker-end:url(#a);stroke:#ffffff"
       inkscape:connector-curvature="0" />
    <rect
       x="41.534004"
       y="54.624092"
       width="9.7677002"
       height="7.7097001"
       id="rect13"
       style="fill:#ffffff;stroke-opacity:0;stroke:#ffffff" />
    <path
       d="m 37.686004,54.790089 8.7006,-15.009 8.5966,15.009 z"
       id="path15"
       style="fill:#ffffff;stroke-width:0.26458001px;stroke:#ffffff"
       inkscape:connector-curvature="0" />
  </g>
</svg>
